# xmcd
#
# Track frame offsets:
#	150
#	18940
#	35927
#	52402
#	78207
#	98295
#	117107
#	137220
#	166012
#	180387
#	201820
#	226145
#	244780
#
# Disc length: 3522 seconds
#
# Revision: 1
# Processed by: cddbd v1.4PL0 Copyright (c) Steve Scherf et al.
# Submitted via: audiograbber 1.82.02
#
DISCID=9e0dc00d
DTITLE=Baseado em Blues - Madrugada Blues
DYEAR=1997
DGENRE=Blues
TTITLE0=When You Love Somebody
TTITLE1=Runnaway Man
TTITLE2=Engano
TTITLE3=Special Girl
TTITLE4=Someday
TTITLE5=Lucky Guy
TTITLE6=I Gotta Be Free
TTITLE7=Night
TTITLE8=Madrugada Blues
TTITLE9=Feeling the Blues
TTITLE10=Velha Roupa Colorida
TTITLE11=Something to Tell You
TTITLE12=I Don't Care About You
EXTD=
EXTT0=
EXTT1=
EXTT2=
EXTT3=
EXTT4=
EXTT5=
EXTT6=
EXTT7=
EXTT8=
EXTT9=
EXTT10=
EXTT11=
EXTT12=
PLAYORDER=
